<svg width="202" height="39" viewBox="0 0 202 39" fill="none" xmlns="http://www.w3.org/2000/svg">
<path d="M14.1758 22.7539H11.375V29H7.85938V11.9375H14.1992C16.2148 11.9375 17.7695 12.3867 18.8633 13.2852C19.957 14.1836 20.5039 15.4531 20.5039 17.0938C20.5039 18.2578 20.25 19.2305 19.7422 20.0117C19.2422 20.7852 18.4805 21.4023 17.457 21.8633L21.1484 28.8359V29H17.375L14.1758 22.7539ZM11.375 19.9062H14.2109C15.0938 19.9062 15.7773 19.6836 16.2617 19.2383C16.7461 18.7852 16.9883 18.1641 16.9883 17.375C16.9883 16.5703 16.7578 15.9375 16.2969 15.4766C15.8438 15.0156 15.1445 14.7852 14.1992 14.7852H11.375V19.9062ZM37.2031 20.8555C37.2031 22.5352 36.9062 24.0078 36.3125 25.2734C35.7188 26.5391 34.8672 27.5156 33.7578 28.2031C32.6562 28.8906 31.3906 29.2344 29.9609 29.2344C28.5469 29.2344 27.2852 28.8945 26.1758 28.2148C25.0664 27.5352 24.207 26.5664 23.5977 25.3086C22.9883 24.043 22.6797 22.5898 22.6719 20.9492V20.1055C22.6719 18.4258 22.9727 16.9492 23.5742 15.6758C24.1836 14.3945 25.0391 13.4141 26.1406 12.7344C27.25 12.0469 28.5156 11.7031 29.9375 11.7031C31.3594 11.7031 32.6211 12.0469 33.7227 12.7344C34.832 13.4141 35.6875 14.3945 36.2891 15.6758C36.8984 16.9492 37.2031 18.4219 37.2031 20.0938V20.8555ZM33.6406 20.082C33.6406 18.293 33.3203 16.9336 32.6797 16.0039C32.0391 15.0742 31.125 14.6094 29.9375 14.6094C28.7578 14.6094 27.8477 15.0703 27.207 15.9922C26.5664 16.9062 26.2422 18.25 26.2344 20.0234V20.8555C26.2344 22.5977 26.5547 23.9492 27.1953 24.9102C27.8359 25.8711 28.7578 26.3516 29.9609 26.3516C31.1406 26.3516 32.0469 25.8906 32.6797 24.9688C33.3125 24.0391 33.6328 22.6875 33.6406 20.9141V20.082ZM53.1523 23.3164C53.0195 25.1523 52.3398 26.5977 51.1133 27.6523C49.8945 28.707 48.2852 29.2344 46.2852 29.2344C44.0977 29.2344 42.375 28.5 41.1172 27.0312C39.8672 25.5547 39.2422 23.5312 39.2422 20.9609V19.918C39.2422 18.2773 39.5312 16.832 40.1094 15.582C40.6875 14.332 41.5117 13.375 42.582 12.7109C43.6602 12.0391 44.9102 11.7031 46.332 11.7031C48.3008 11.7031 49.8867 12.2305 51.0898 13.2852C52.293 14.3398 52.9883 15.8203 53.1758 17.7266H49.6602C49.5742 16.625 49.2656 15.8281 48.7344 15.3359C48.2109 14.8359 47.4102 14.5859 46.332 14.5859C45.1602 14.5859 44.2812 15.0078 43.6953 15.8516C43.1172 16.6875 42.8203 17.9883 42.8047 19.7539V21.043C42.8047 22.8867 43.082 24.2344 43.6367 25.0859C44.1992 25.9375 45.082 26.3633 46.2852 26.3633C47.3711 26.3633 48.1797 26.1172 48.7109 25.625C49.25 25.125 49.5586 24.3555 49.6367 23.3164H53.1523ZM60.8047 22.1562L58.9766 24.125V29H55.4609V11.9375H58.9766V19.6719L60.5234 17.5508L64.8711 11.9375H69.1953L63.1367 19.5195L69.3711 29H65.1875L60.8047 22.1562ZM80.9609 21.6055H74.2109V26.1758H82.1328V29H70.6953V11.9375H82.1094V14.7852H74.2109V18.8516H80.9609V21.6055ZM97.2734 14.7852H92.0469V29H88.5312V14.7852H83.375V11.9375H97.2734V14.7852ZM109.555 22.0273H102.805V29H99.2891V11.9375H110.398V14.7852H102.805V19.1914H109.555V22.0273ZM126.453 20.8555C126.453 22.5352 126.156 24.0078 125.562 25.2734C124.969 26.5391 124.117 27.5156 123.008 28.2031C121.906 28.8906 120.641 29.2344 119.211 29.2344C117.797 29.2344 116.535 28.8945 115.426 28.2148C114.316 27.5352 113.457 26.5664 112.848 25.3086C112.238 24.043 111.93 22.5898 111.922 20.9492V20.1055C111.922 18.4258 112.223 16.9492 112.824 15.6758C113.434 14.3945 114.289 13.4141 115.391 12.7344C116.5 12.0469 117.766 11.7031 119.188 11.7031C120.609 11.7031 121.871 12.0469 122.973 12.7344C124.082 13.4141 124.938 14.3945 125.539 15.6758C126.148 16.9492 126.453 18.4219 126.453 20.0938V20.8555ZM122.891 20.082C122.891 18.293 122.57 16.9336 121.93 16.0039C121.289 15.0742 120.375 14.6094 119.188 14.6094C118.008 14.6094 117.098 15.0703 116.457 15.9922C115.816 16.9062 115.492 18.25 115.484 20.0234V20.8555C115.484 22.5977 115.805 23.9492 116.445 24.9102C117.086 25.8711 118.008 26.3516 119.211 26.3516C120.391 26.3516 121.297 25.8906 121.93 24.9688C122.562 24.0391 122.883 22.6875 122.891 20.9141V20.082ZM143.023 20.8555C143.023 22.5352 142.727 24.0078 142.133 25.2734C141.539 26.5391 140.688 27.5156 139.578 28.2031C138.477 28.8906 137.211 29.2344 135.781 29.2344C134.367 29.2344 133.105 28.8945 131.996 28.2148C130.887 27.5352 130.027 26.5664 129.418 25.3086C128.809 24.043 128.5 22.5898 128.492 20.9492V20.1055C128.492 18.4258 128.793 16.9492 129.395 15.6758C130.004 14.3945 130.859 13.4141 131.961 12.7344C133.07 12.0469 134.336 11.7031 135.758 11.7031C137.18 11.7031 138.441 12.0469 139.543 12.7344C140.652 13.4141 141.508 14.3945 142.109 15.6758C142.719 16.9492 143.023 18.4219 143.023 20.0938V20.8555ZM139.461 20.082C139.461 18.293 139.141 16.9336 138.5 16.0039C137.859 15.0742 136.945 14.6094 135.758 14.6094C134.578 14.6094 133.668 15.0703 133.027 15.9922C132.387 16.9062 132.062 18.25 132.055 20.0234V20.8555C132.055 22.5977 132.375 23.9492 133.016 24.9102C133.656 25.8711 134.578 26.3516 135.781 26.3516C136.961 26.3516 137.867 25.8906 138.5 24.9688C139.133 24.0391 139.453 22.6875 139.461 20.9141V20.082ZM145.578 29V11.9375H150.828C152.328 11.9375 153.668 12.2773 154.848 12.957C156.035 13.6289 156.961 14.5898 157.625 15.8398C158.289 17.082 158.621 18.4961 158.621 20.082V20.8672C158.621 22.4531 158.293 23.8633 157.637 25.0977C156.988 26.332 156.07 27.2891 154.883 27.9688C153.695 28.6484 152.355 28.9922 150.863 29H145.578ZM149.094 14.7852V26.1758H150.793C152.168 26.1758 153.219 25.7266 153.945 24.8281C154.672 23.9297 155.043 22.6445 155.059 20.9727V20.0703C155.059 18.3359 154.699 17.0234 153.98 16.1328C153.262 15.2344 152.211 14.7852 150.828 14.7852H149.094Z" fill="white"/>
<path d="M191 21C192.104 21 193 22.1194 193 23.5C193 24.8806 192.104 26 191 26H174C172.896 26 172 24.8806 172 23.5C172 22.1194 172.896 21 174 21M190.125 26C190.125 28.2094 188.834 30 186.625 30H178.375C176.166 30 174.875 28.2094 174.875 26H190.125Z" stroke="white" stroke-width="1.5" stroke-miterlimit="10" stroke-linecap="round"/>
<path d="M185.062 7L185.528 10.9981M191.5 21H181.207C181.074 21.0001 180.947 21.0527 180.854 21.1462L179.177 22.8231C179.154 22.8464 179.126 22.8648 179.096 22.8774C179.065 22.89 179.033 22.8964 179 22.8964C178.967 22.8964 178.935 22.89 178.904 22.8774C178.874 22.8648 178.846 22.8464 178.823 22.8231L177.146 21.1462C177.053 21.0527 176.926 21.0001 176.793 21H173.5C173.102 21 172.721 20.842 172.439 20.5607C172.158 20.2794 172 19.8978 172 19.5V19.5C172 19.1022 172.158 18.7206 172.439 18.4393C172.721 18.158 173.102 18 173.5 18H191.5C191.898 18 192.279 18.158 192.561 18.4393C192.842 18.7206 193 19.1022 193 19.5C193 19.8978 192.842 20.2794 192.561 20.5607C192.279 20.842 191.898 21 191.5 21ZM174 17.25V17.2362C174 13.7987 176.812 12 180.25 12H184.75C188.188 12 191 13.8125 191 17.25V17.2362L174 17.25Z" stroke="white" stroke-width="1.5" stroke-miterlimit="10" stroke-linecap="round"/>
<path d="M186 30H194.707C195.211 30 195.697 29.8093 196.067 29.4661C196.437 29.1229 196.664 28.6525 196.701 28.1494L198.938 7" stroke="white" stroke-width="1.5" stroke-miterlimit="10" stroke-linecap="round"/>
<path d="M193 7L194 3L196.938 2" stroke="white" stroke-width="1.5" stroke-linecap="round" stroke-linejoin="round"/>
<path d="M184 7H200" stroke="white" stroke-width="1.5" stroke-miterlimit="10" stroke-linecap="round"/>
</svg>
